<svg xmlns="http://www.w3.org/2000/svg" xmlns:xlink="http://www.w3.org/1999/xlink" width="12" height="36.461" viewBox="0 0 12 36.461">
  <defs>
    <linearGradient id="linear-gradient" x1="0.463" y1="0.914" x2="0.463" y2="-0.169" gradientUnits="objectBoundingBox">
      <stop offset="0" stop-color="#ffcf95"/>
      <stop offset="0.427" stop-color="#ffc954"/>
      <stop offset="1" stop-color="#ffc200"/>
    </linearGradient>
    <linearGradient id="linear-gradient-2" x1="1.217" y1="1.457" x2="-0.633" y2="1.457" gradientUnits="objectBoundingBox">
      <stop offset="0" stop-color="#ffc200" stop-opacity="0"/>
      <stop offset="0.203" stop-color="#fb0" stop-opacity="0.204"/>
      <stop offset="0.499" stop-color="#ffa700" stop-opacity="0.498"/>
      <stop offset="0.852" stop-color="#f80" stop-opacity="0.851"/>
      <stop offset="1" stop-color="#ff7800"/>
    </linearGradient>
    <linearGradient id="linear-gradient-3" x1="0.518" y1="-0.407" x2="0.353" y2="1.223" xlink:href="#linear-gradient-2"/>
    <linearGradient id="linear-gradient-4" x1="-0.462" y1="-1.03" x2="0.591" y2="-0.306" xlink:href="#linear-gradient-2"/>
    <linearGradient id="linear-gradient-5" x1="-0.151" y1="-0.116" x2="0.585" y2="-0.571" xlink:href="#linear-gradient-2"/>
    <linearGradient id="linear-gradient-6" x1="0.61" y1="2.287" x2="0.415" y2="1.017" xlink:href="#linear-gradient-2"/>
    <linearGradient id="linear-gradient-7" x1="1.34" y1="1.58" x2="-0.083" y2="0.368" xlink:href="#linear-gradient-2"/>
  </defs>
  <g id="Group_1151" data-name="Group 1151" transform="translate(-2758 -602)">
    <g id="favourites" transform="translate(2758 590.499)">
      <path id="Path_2895" data-name="Path 2895" d="M6.441,11.775l1.587,3.216,3.549.516a.492.492,0,0,1,.273.84l-2.568,2.5.606,3.535a.492.492,0,0,1-.714.519L6,21.235,2.825,22.9a.492.492,0,0,1-.714-.519l.606-3.535-2.568-2.5a.492.492,0,0,1,.273-.84l3.549-.516,1.587-3.216A.492.492,0,0,1,6.441,11.775Z" transform="translate(0)" fill="url(#linear-gradient)"/>
      <path id="Path_2896" data-name="Path 2896" d="M258.03,14.992l-1.587-3.216A.487.487,0,0,0,256,11.5V17.59Z" transform="translate(-250.001 0)" fill="url(#linear-gradient-2)"/>
      <path id="Path_2897" data-name="Path 2897" d="M259.283,200.021l2.568-2.5a.486.486,0,0,0,.127-.5L256,198.761Z" transform="translate(-250 -181.171)" fill="url(#linear-gradient-3)"/>
      <path id="Path_2898" data-name="Path 2898" d="M259.694,276.565,256,271.289v3.646l3.174,1.669A.487.487,0,0,0,259.694,276.565Z" transform="translate(-250 -253.699)" fill="url(#linear-gradient-4)"/>
      <path id="Path_2899" data-name="Path 2899" d="M93.653,271.289l-3.283,1.261-.606,3.535a.487.487,0,0,0,.194.48Z" transform="translate(-87.654 -253.699)" fill="url(#linear-gradient-5)"/>
      <path id="Path_2900" data-name="Path 2900" d="M.968,161.287l5.977,1.741-2.029-2.6-3.549.516a.487.487,0,0,0-.4.342Z" transform="translate(-0.945 -145.438)" fill="url(#linear-gradient-6)"/>
      <path id="Path_2901" data-name="Path 2901" d="M2.723,200.022l-2.568-2.5a.486.486,0,0,1-.127-.5l5.977,1.741Z" transform="translate(-0.006 -181.172)" fill="url(#linear-gradient-7)"/>
    </g>
    <g id="favourites-2" data-name="favourites" transform="translate(2758 615.499)">
      <path id="Path_2895-2" data-name="Path 2895" d="M6.441,11.775l1.587,3.216,3.549.516a.492.492,0,0,1,.273.84l-2.568,2.5.606,3.535a.492.492,0,0,1-.714.519L6,21.235,2.825,22.9a.492.492,0,0,1-.714-.519l.606-3.535-2.568-2.5a.492.492,0,0,1,.273-.84l3.549-.516,1.587-3.216A.492.492,0,0,1,6.441,11.775Z" transform="translate(0)" fill="#e4e4e4"/>
      <path id="Path_2896-2" data-name="Path 2896" d="M258.03,14.992l-1.587-3.216A.487.487,0,0,0,256,11.5V17.59Z" transform="translate(-250.001 0)" fill="#e4e4e4"/>
      <path id="Path_2897-2" data-name="Path 2897" d="M259.283,200.021l2.568-2.5a.486.486,0,0,0,.127-.5L256,198.761Z" transform="translate(-250 -181.171)" fill="#e4e4e4"/>
      <path id="Path_2898-2" data-name="Path 2898" d="M259.694,276.565,256,271.289v3.646l3.174,1.669A.487.487,0,0,0,259.694,276.565Z" transform="translate(-250 -253.699)" fill="#e4e4e4"/>
      <path id="Path_2899-2" data-name="Path 2899" d="M93.653,271.289l-3.283,1.261-.606,3.535a.487.487,0,0,0,.194.48Z" transform="translate(-87.654 -253.699)" fill="#e4e4e4"/>
      <path id="Path_2900-2" data-name="Path 2900" d="M.968,161.287l5.977,1.741-2.029-2.6-3.549.516a.487.487,0,0,0-.4.342Z" transform="translate(-0.945 -145.438)" fill="#e4e4e4"/>
      <path id="Path_2901-2" data-name="Path 2901" d="M2.723,200.022l-2.568-2.5a.486.486,0,0,1-.127-.5l5.977,1.741Z" transform="translate(-0.006 -181.172)" fill="#e4e4e4"/>
    </g>
  </g>
</svg>
