<svg xmlns="http://www.w3.org/2000/svg" xmlns:xlink="http://www.w3.org/1999/xlink" width="15.975" height="40" viewBox="0 0 15.975 40">
  <defs>
    <linearGradient id="linear-gradient" x1="0.463" y1="0.914" x2="0.463" y2="-0.169" gradientUnits="objectBoundingBox">
      <stop offset="0" stop-color="#ffcf95"/>
      <stop offset="0.427" stop-color="#ffc954"/>
      <stop offset="1" stop-color="#ffc200"/>
    </linearGradient>
    <linearGradient id="linear-gradient-2" x1="1.217" y1="1.457" x2="-0.633" y2="1.457" gradientUnits="objectBoundingBox">
      <stop offset="0" stop-color="#ffc200" stop-opacity="0"/>
      <stop offset="0.203" stop-color="#fb0" stop-opacity="0.204"/>
      <stop offset="0.499" stop-color="#ffa700" stop-opacity="0.498"/>
      <stop offset="0.852" stop-color="#f80" stop-opacity="0.851"/>
      <stop offset="1" stop-color="#ff7800"/>
    </linearGradient>
    <linearGradient id="linear-gradient-3" x1="0.518" y1="-0.407" x2="0.353" y2="1.223" xlink:href="#linear-gradient-2"/>
    <linearGradient id="linear-gradient-4" x1="-0.462" y1="-1.03" x2="0.591" y2="-0.306" xlink:href="#linear-gradient-2"/>
    <linearGradient id="linear-gradient-5" x1="-0.151" y1="-0.116" x2="0.585" y2="-0.571" xlink:href="#linear-gradient-2"/>
    <linearGradient id="linear-gradient-6" x1="0.61" y1="2.287" x2="0.415" y2="1.017" xlink:href="#linear-gradient-2"/>
    <linearGradient id="linear-gradient-7" x1="1.34" y1="1.58" x2="-0.083" y2="0.368" xlink:href="#linear-gradient-2"/>
  </defs>
  <g id="Group_1152" data-name="Group 1152" transform="translate(-2757.083 -579)">
    <g id="favourites" transform="translate(2757.352 604)">
      <path id="Path_2895" data-name="Path 2895" d="M8.431,11.86l2.077,4.209,4.645.675a.644.644,0,0,1,.357,1.1L12.149,21.12l.793,4.626a.644.644,0,0,1-.935.679L7.853,24.241,3.7,26.425a.644.644,0,0,1-.935-.679l.793-4.626L.2,17.843a.644.644,0,0,1,.357-1.1L5.2,16.069,7.275,11.86A.644.644,0,0,1,8.431,11.86Z" transform="translate(0 -11.501)" fill="#fff"/>
      <path id="Path_2896" data-name="Path 2896" d="M258.656,16.069l-2.077-4.209A.637.637,0,0,0,256,11.5V19.47Z" transform="translate(-248.148 -11.501)" fill="#fff"/>
      <path id="Path_2897" data-name="Path 2897" d="M260.3,200.948l3.361-3.276a.636.636,0,0,0,.166-.652L256,199.3Z" transform="translate(-248.147 -191.329)" fill="#fff"/>
      <path id="Path_2898" data-name="Path 2898" d="M260.835,278.194l-4.835-6.9v4.771l4.155,2.184A.637.637,0,0,0,260.835,278.194Z" transform="translate(-248.147 -263.32)" fill="#fff"/>
      <path id="Path_2899" data-name="Path 2899" d="M94.857,271.289l-4.3,1.65-.793,4.626a.637.637,0,0,0,.254.629Z" transform="translate(-87.004 -263.32)" fill="#fff"/>
      <path id="Path_2900" data-name="Path 2900" d="M.968,161.551l7.823,2.278-2.655-3.4-4.645.675a.637.637,0,0,0-.523.447Z" transform="translate(-0.938 -155.861)" fill="#fff"/>
      <path id="Path_2901" data-name="Path 2901" d="M3.562,200.949.2,197.673a.636.636,0,0,1-.166-.652L7.858,199.3Z" transform="translate(-0.006 -191.33)" fill="#fff"/>
    </g>
    <g id="favourites-2" data-name="favourites" transform="translate(2757.083 579)">
      <path id="Path_2895-2" data-name="Path 2895" d="M8.431,11.86l2.077,4.209,4.645.675a.644.644,0,0,1,.357,1.1L12.149,21.12l.793,4.626a.644.644,0,0,1-.935.679L7.853,24.241,3.7,26.425a.644.644,0,0,1-.935-.679l.793-4.626L.2,17.843a.644.644,0,0,1,.357-1.1L5.2,16.069,7.275,11.86A.644.644,0,0,1,8.431,11.86Z" transform="translate(0 -11.501)" fill="url(#linear-gradient)"/>
      <path id="Path_2896-2" data-name="Path 2896" d="M258.656,16.069l-2.077-4.209A.637.637,0,0,0,256,11.5V19.47Z" transform="translate(-248.148 -11.501)" fill="url(#linear-gradient-2)"/>
      <path id="Path_2897-2" data-name="Path 2897" d="M260.3,200.948l3.361-3.276a.636.636,0,0,0,.166-.652L256,199.3Z" transform="translate(-248.147 -191.329)" fill="url(#linear-gradient-3)"/>
      <path id="Path_2898-2" data-name="Path 2898" d="M260.835,278.194l-4.835-6.9v4.771l4.155,2.184A.637.637,0,0,0,260.835,278.194Z" transform="translate(-248.147 -263.32)" fill="url(#linear-gradient-4)"/>
      <path id="Path_2899-2" data-name="Path 2899" d="M94.857,271.289l-4.3,1.65-.793,4.626a.637.637,0,0,0,.254.629Z" transform="translate(-87.004 -263.32)" fill="url(#linear-gradient-5)"/>
      <path id="Path_2900-2" data-name="Path 2900" d="M.968,161.551l7.823,2.278-2.655-3.4-4.645.675a.637.637,0,0,0-.523.447Z" transform="translate(-0.938 -155.861)" fill="url(#linear-gradient-6)"/>
      <path id="Path_2901-2" data-name="Path 2901" d="M3.562,200.949.2,197.673a.636.636,0,0,1-.166-.652L7.858,199.3Z" transform="translate(-0.006 -191.33)" fill="url(#linear-gradient-7)"/>
    </g>
  </g>
</svg>
